<?xml version="1.0" standalone="no"?>
<!DOCTYPE svg PUBLIC "-//W3C//DTD SVG 20010904//EN"
 "http://www.w3.org/TR/2001/REC-SVG-20010904/DTD/svg10.dtd">
<svg version="1.0" xmlns="http://www.w3.org/2000/svg"
 width="400.000000pt" height="400.000000pt" viewBox="0 0 400.000000 400.000000"
 preserveAspectRatio="xMidYMid meet">
<metadata>
Created by potrace 1.14, written by Peter Selinger 2001-2017
</metadata>
<g transform="translate(0.000000,400.000000) scale(0.100000,-0.100000)"
fill="#000000" stroke="none">
<path d="M0 2000 l0 -2000 2000 0 2000 0 0 2000 0 2000 -2000 0 -2000 0 0
-2000z m1600 1612 c0 -13 -38 -46 -56 -48 -12 -2 -13 1 -3 12 16 20 0 17 -24
-3 -19 -18 -20 -17 -8 5 10 19 18 22 38 17 15 -3 22 -2 19 4 -3 5 0 12 6 14
20 8 28 8 28 -1z m11 -56 c-14 -17 -51 -28 -51 -15 0 5 9 9 19 9 11 0 23 5 26
10 3 6 9 10 12 10 3 0 0 -6 -6 -14z m-116 -28 l-7 -23 21 23 c28 29 35 28 16
-2 -25 -38 -45 -41 -45 -6 0 17 5 30 11 30 6 0 8 -9 4 -22z m210 -117 c-3 -6
-11 -11 -17 -11 -6 0 -6 6 2 15 14 17 26 13 15 -4z m5 -31 c-14 -26 -2 -26 50
-1 27 13 41 15 44 7 3 -7 8 -6 15 4 7 10 13 12 20 5 15 -15 -3 -72 -32 -104
-51 -56 -19 -95 42 -50 23 17 33 19 50 10 11 -6 25 -21 31 -32 15 -27 47 -38
89 -28 22 5 40 4 48 -3 9 -7 17 -5 28 6 23 22 27 21 70 -20 45 -42 40 -51 -39
-64 -32 -5 -64 -14 -72 -21 -8 -7 -30 -9 -56 -5 -107 16 -143 17 -180 5 -21
-6 -38 -15 -38 -19 0 -4 -8 -10 -17 -14 -10 -3 -24 -9 -32 -12 -9 -5 -12 -2
-7 7 4 8 0 5 -9 -7 -13 -18 -22 -20 -66 -14 -39 5 -54 3 -67 -9 -8 -9 -18 -15
-21 -13 -3 2 -10 -13 -15 -32 -5 -20 -15 -36 -23 -36 -7 0 -13 -9 -13 -20 0
-11 -4 -20 -10 -20 -5 0 -10 -16 -10 -35 0 -37 -10 -44 -29 -21 -9 11 -6 20
14 44 13 16 30 53 37 80 6 29 16 49 21 45 6 -4 8 2 5 15 -5 18 -2 20 21 16 25
-5 26 -4 23 33 -1 21 -4 63 -6 93 -3 30 -7 70 -11 87 -6 25 -4 34 9 39 9 3 16
14 16 24 0 17 18 35 59 58 12 8 20 9 16 3 -9 -16 4 -13 21 4 22 22 37 19 24
-5z m-280 -320 c0 -17 -2 -19 -14 -8 -14 13 -12 28 5 28 5 0 9 -9 9 -20z m3
-118 c-23 -6 -10 -84 21 -125 22 -30 35 -66 39 -112 1 -15 -5 -21 -25 -23 -24
-3 -28 1 -41 50 -19 66 -41 208 -33 216 3 3 6 0 6 -7 0 -7 5 -9 10 -6 6 3 10
18 10 33 l1 27 14 -25 c12 -22 12 -25 -2 -28z m172 -59 c30 -32 81 -131 72
-140 -3 -3 -22 -2 -42 1 -55 11 -95 63 -95 125 0 50 26 55 65 14z m399 4 c15
-11 17 -21 10 -58 -9 -50 -7 -80 7 -93 5 -6 9 -22 9 -36 0 -32 -51 -60 -110
-60 -43 0 -50 12 -25 44 8 11 15 28 15 38 0 25 59 178 69 178 4 0 15 -6 25
-13z m-270 -262 c-5 -11 -2 -13 10 -9 9 3 16 2 16 -4 0 -6 3 -19 6 -29 5 -17
5 -17 -9 0 -8 9 -21 17 -30 17 -22 0 -32 20 -16 31 21 13 29 11 23 -6z m160
-61 c8 -32 3 -37 -50 -52 -56 -16 -80 -16 -66 1 10 12 12 18 12 37 0 13 50 39
76 40 15 0 24 -8 28 -26z m36 -270 c0 -10 -55 -24 -69 -19 -14 6 -14 8 2 19
15 12 67 11 67 0z m128 -55 c37 -31 76 -39 182 -40 43 0 174 -67 178 -91 7
-35 -29 -37 -118 -7 -47 16 -116 31 -155 34 l-70 6 80 -41 c44 -22 103 -50
130 -61 28 -11 65 -37 83 -57 28 -30 31 -38 19 -49 -10 -11 -24 -11 -63 -4
-27 6 -116 15 -199 21 -142 10 -153 10 -205 -9 -30 -12 -56 -21 -57 -21 -2 0
-3 -5 -3 -11 0 -7 28 -9 84 -6 84 5 173 -6 189 -22 6 -6 -7 -14 -32 -21 -23
-6 -50 -14 -59 -17 -14 -5 -14 -3 3 16 l19 22 -29 -7 c-17 -4 -35 -11 -41 -16
-14 -11 -241 -15 -271 -4 -20 6 -21 4 -16 -27 5 -32 3 -34 -41 -51 -25 -10
-46 -21 -46 -24 0 -4 -13 -20 -28 -37 -16 -16 -29 -34 -29 -40 0 -5 -26 -23
-58 -38 -32 -16 -69 -42 -83 -59 -14 -16 -36 -34 -48 -38 -14 -6 -33 -31 -49
-65 -15 -30 -30 -55 -35 -55 -10 0 -8 -49 3 -66 4 -7 0 -11 -11 -10 -11 1 -16
-5 -14 -16 2 -11 -3 -18 -13 -18 -8 0 -15 -5 -15 -11 0 -5 -4 -7 -10 -4 -5 3
-10 1 -10 -5 0 -11 -9 -24 -43 -61 -10 -11 -15 -24 -12 -28 2 -5 -2 -11 -10
-15 -8 -3 -12 -11 -9 -19 4 -13 -51 -77 -67 -77 -10 0 -33 -60 -32 -82 1 -10
-2 -18 -6 -18 -5 0 -14 -14 -21 -31 -10 -22 -15 -27 -21 -17 -6 9 -9 6 -9 -9
0 -13 -4 -23 -10 -23 -5 0 -10 9 -10 19 0 10 -7 21 -14 24 -10 4 -13 1 -10 -7
8 -20 -35 -27 -62 -10 -21 15 -22 14 -17 -7 5 -18 3 -21 -11 -16 -10 4 -15 3
-11 -3 3 -5 2 -18 -4 -27 -9 -16 -10 -16 -18 5 -9 22 -10 23 -24 6 -11 -15
-12 -16 0 -9 10 5 12 4 7 -4 -5 -7 -13 -8 -24 -2 -18 10 -72 -12 -72 -29 0
-14 6 -12 24 6 9 8 16 11 16 6 0 -5 -7 -15 -15 -22 -13 -10 -19 -10 -33 2 -19
17 -42 13 -42 -7 0 -11 -50 -39 -65 -36 -3 1 -13 -5 -21 -14 -19 -18 -34 -20
-34 -2 0 8 -4 7 -10 -3 -8 -12 -10 -11 -10 8 0 12 -4 22 -10 22 -5 0 -10 -5
-10 -12 0 -6 -3 -8 -7 -5 -3 4 -12 2 -20 -5 -10 -8 -17 -8 -25 0 -18 18 78
103 170 150 45 24 86 41 91 38 18 -11 372 355 517 534 92 114 431 450 454 450
9 0 9 -4 0 -15 -23 -27 2 -37 51 -21 24 9 78 25 119 37 41 12 93 31 115 43 33
17 57 21 138 21 68 -1 97 3 97 11 0 13 -32 24 -71 24 -15 0 -43 7 -63 15 -33
14 -43 14 -99 0 -34 -8 -86 -19 -115 -25 -29 -5 -77 -21 -107 -35 -31 -14 -64
-25 -75 -25 -36 0 -21 29 28 53 26 13 65 33 87 45 22 11 65 27 96 35 31 8 76
26 100 40 42 26 42 26 16 32 -18 5 -43 -1 -82 -19 -30 -15 -61 -26 -68 -25
-23 3 -33 -1 -87 -36 -30 -19 -60 -35 -67 -35 -21 0 -15 28 8 40 11 7 38 27
59 46 41 37 83 57 175 84 82 24 81 24 123 -11z m393 -196 c13 -16 12 -17 -3
-4 -10 7 -18 15 -18 17 0 8 8 3 21 -13z m9 -33 c0 -5 -2 -10 -4 -10 -3 0 -8 5
-11 10 -3 6 -1 10 4 10 6 0 11 -4 11 -10z m-840 -71 c0 -6 -4 -7 -10 -4 -5 3
-10 11 -10 16 0 6 5 7 10 4 6 -3 10 -11 10 -16z m1000 -198 c74 -72 132 -131
130 -132 -49 -9 -63 -8 -76 6 -9 8 -24 15 -35 15 -11 0 -18 4 -15 9 4 5 3 11
-1 13 -5 1 -16 17 -25 33 -10 17 -23 29 -29 27 -6 -1 -17 2 -23 8 -7 5 -16 7
-19 3 -4 -3 -7 -1 -7 5 0 7 -6 12 -14 12 -8 0 -24 16 -36 35 -12 19 -41 52
-65 73 l-44 39 24 11 c14 7 25 17 25 23 0 16 61 -36 210 -180z m133 -158 c-6
-15 -4 -16 8 -6 13 10 20 8 43 -16 32 -33 25 -42 -29 -35 -48 6 -55 10 -55 35
0 11 4 18 9 15 5 -3 11 1 15 9 3 8 8 15 10 15 3 0 2 -8 -1 -17z m-947 -83 c0
-11 -1 -20 -3 -20 -1 0 -7 9 -13 20 -8 15 -8 20 3 20 7 0 13 -9 13 -20z m1741
-590 c66 -30 86 -46 77 -62 -8 -12 -97 31 -128 63 -15 16 -25 29 -22 29 4 0
37 -14 73 -30z"/>
<path d="M1427 2777 c3 -15 9 -30 14 -33 14 -8 10 20 -5 41 -13 18 -14 18 -9
-8z"/>
</g>
</svg>
